<?xml version="1.0" standalone="no"?><!DOCTYPE svg PUBLIC "-//W3C//DTD SVG 1.1//EN" "http://www.w3.org/Graphics/SVG/1.1/DTD/svg11.dtd"><svg t="1546655476007" class="icon" style="" viewBox="0 0 1352 1024" version="1.1" xmlns="http://www.w3.org/2000/svg" p-id="3765" xmlns:xlink="http://www.w3.org/1999/xlink" width="264.0625" height="200"><defs><style type="text/css"></style></defs><path d="M1140.836063 448.728305c-8.458071-2.621388-17.407652 1.98652-20.090478 10.403632-2.662347 8.417112 1.98652 17.407652 10.403632 20.090478 125.048379 39.832803 180.834783 99.264575 180.834783 192.774385 0 83.167617-75.876882 147.698806-121.054859 178.807304-4.362153 3.0105-6.942581 7.905122-6.942581 13.188856l0 122.324594c-23.367213-8.703826-64.101118-28.48711-100.02232-68.954781-3.747765-4.198316-9.441091-6.102918-14.970581-5.078938-9.113418 1.761245-18.431631 4.259755-27.872723 6.778744-16.322234 4.382632-33.156457 8.929101-49.110058 8.929101-82.184596 0-139.711766-17.653407-198.529149-60.885822-7.167857-5.242775-17.120938-3.686326-22.363713 3.420092-5.242775 7.126897-3.706806 17.120938 3.399612 22.363713 64.858863 47.676486 127.874563 67.111618 217.49325 67.111618 20.192876 0 39.136497-5.078938 57.445251-10.01452 5.693326-1.576928 11.366173-3.112898 16.957101-4.423592 59.800404 63.159057 127.444491 77.535729 130.393552 78.109158 1.064939 0.225275 2.109398 0.327673 3.194816 0.327673 3.645367 0 7.270255-1.249255 10.116918-3.624888 3.747765-3.030979 5.877642-7.577448 5.877642-12.390152l0-135.636327c82.614668-58.919782 127.99744-129.820124 127.99744-200.351833 0-108.193676-64.551669-179.134977-203.137057-223.268495zM1055.98912 431.99648c0-246.267075-224.579188-431.99648-522.331953-431.99648-299.268255 0-533.657167 189.784364-533.657167 432.057919 0 145.241255 102.746105 249.298054 191.99616 312.272795l0 212.352873c0 5.447571 2.744265 10.465071 7.290734 13.434611 2.662347 1.699806 5.672847 2.559949 8.703826 2.559949 2.211796 0 4.444071-0.471031 6.553469-1.413092 4.669347-2.088918 113.887002-51.710966 207.314894-153.883642 40.48815 7.51601 86.260035 14.745305 127.813124 14.745305 302.811224 0 506.296434-160.826223 506.296434-400.150717zM549.651727 800.137597c-41.921722 0-89.557249-8.027999-130.659787-15.871683-5.529489-0.98302-11.222816 0.901102-14.970581 5.078938-65.596128 73.99276-142.681306 120.99342-180.036079 141.247735l0-194.617548c0-5.283734-2.600908-10.178356-6.942581-13.188856-84.416872-58.080118-185.053579-155.603928-185.053579-290.748745 0-224.353913 220.339913-400.048319 501.647567-400.048319 279.546409 0 490.322354 171.967121 490.322354 399.98688 0 220.217036-190.624028 368.161597-474.327793 368.161597zM527.98432 367.99776c-35.286334 0-63.99872 28.712386-63.99872 63.99872s28.712386 63.99872 63.99872 63.99872 63.99872-28.712386 63.99872-63.99872-28.712386-63.99872-63.99872-63.99872zM527.98432 463.9856c-17.632927 0-32.0096-14.335713-32.0096-32.0096s14.376672-32.0096 32.0096-32.0096 32.0096 14.335713 32.0096 32.0096-14.376672 32.0096-32.0096 32.0096zM751.99008 367.99776c-35.286334 0-63.99872 28.712386-63.99872 63.99872s28.712386 63.99872 63.99872 63.99872 63.99872-28.712386 63.99872-63.99872-28.712386-63.99872-63.99872-63.99872zM751.99008 463.9856c-17.632927 0-32.0096-14.335713-32.0096-32.0096s14.376672-32.0096 32.0096-32.0096 32.0096 14.335713 32.0096 32.0096-14.376672 32.0096-32.0096 32.0096zM303.99904 371.028739c-35.286334 0-63.99872 28.712386-63.99872 63.99872s28.712386 63.99872 63.99872 63.99872 63.99872-28.712386 63.99872-63.99872-28.712386-63.99872-63.99872-63.99872zM303.99904 467.037059c-17.632927 0-32.0096-14.335713-32.0096-32.0096s14.376672-32.0096 32.0096-32.0096 32.0096 14.335713 32.0096 32.0096-14.376672 32.0096-32.0096 32.0096z" p-id="3766"></path></svg>