<?xml version="1.0" standalone="no"?><!DOCTYPE svg PUBLIC "-//W3C//DTD SVG 1.1//EN" "http://www.w3.org/Graphics/SVG/1.1/DTD/svg11.dtd"><svg t="1546783746111" class="icon" style="" viewBox="0 0 1024 1024" version="1.1" xmlns="http://www.w3.org/2000/svg" p-id="7582" xmlns:xlink="http://www.w3.org/1999/xlink" width="200" height="200"><defs><style type="text/css"></style></defs><path d="M411.328 46.004c11.185-12.784 27.165-17.577 41.547-11.185 14.381 6.392 23.969 20.773 23.969 38.351v209.333c0 9.588 7.989 19.176 19.176 19.176 255.674 9.588 460.214 223.715 460.214 485.782 0 71.908-15.98 142.219-44.743 202.942-30.361-209.333-202.942-372.326-415.471-381.914-4.793 0-9.588 1.597-14.381 4.793-3.196 3.196-6.392 7.989-6.392 14.381v185.364c0 17.577-9.588 31.959-23.969 38.351-14.381 6.392-31.959 1.597-41.547-11.185l-311.603-364.336-3.196-4.793c-14.381-14.381-14.381-38.351 0-54.331l3.196-4.793 313.201-365.934zM476.845 341.628c-20.773 0-38.351-17.577-38.351-38.351v-198.148c0-4.793-1.597-7.989-6.392-9.588-3.196-1.598-7.989 0-11.185 3.196l-282.84 332.377c-6.392 7.989-6.392 19.176 0 27.165l284.438 332.377c3.196 3.196 6.392 4.793 11.185 3.196 3.196-1.598 6.392-4.793 6.392-9.588v-175.777c0-20.773 17.577-38.351 38.351-38.351v0c198.148 0 367.532 121.446 439.44 294.025 0-22.372 0-47.939 0-76.702 0-246.086-196.55-445.832-441.038-445.832v0z" p-id="7583"></path></svg>