<?xml version="1.0" standalone="no"?><!DOCTYPE svg PUBLIC "-//W3C//DTD SVG 1.1//EN" "http://www.w3.org/Graphics/SVG/1.1/DTD/svg11.dtd"><svg t="1546615523885" class="icon" style="" viewBox="0 0 1024 1024" version="1.1" xmlns="http://www.w3.org/2000/svg" p-id="780" xmlns:xlink="http://www.w3.org/1999/xlink" width="200" height="200"><defs><style type="text/css"></style></defs><path d="M978.7 456.4L529.8 119.7c-0.4-0.3-1-0.4-1.4-0.7-1.8-1.2-3.6-1.9-5.6-2.6-1.5-0.6-2.8-1.2-4.4-1.5-2-0.4-3.9-0.3-5.9-0.3-1.6 0-3.1-0.1-4.7 0.2-1.8 0.3-3.5 1.1-5.2 1.8-1.7 0.7-3.4 1.3-4.9 2.4-0.5 0.3-1 0.4-1.5 0.7L47.3 456.4c-12.4 9.3-14.9 26.9-5.6 39.3 5.5 7.4 13.9 11.2 22.5 11.2 5.9 0 11.8-1.8 16.8-5.6l39.3-29.5v311.6c0 48.6 37.8 88.2 84.2 88.2h617.2c46.4 0 84.2-39.6 84.2-88.2V471.8l39.3 29.5c5 3.8 10.9 5.6 16.8 5.6 8.5 0 17-3.9 22.5-11.2 9.1-12.4 6.6-30-5.8-39.3zM428.8 815.5v-131c0-20.3 12.8-37.4 28.1-37.4h112.2c15.2 0 28.1 17.1 28.1 37.4v130.9H428.8z m420.8-32.1c0 17.7-12.6 32.1-28.1 32.1H653.3v-131c0-51.6-37.8-93.5-84.2-93.5H456.9c-46.4 0-84.2 41.9-84.2 93.5v130.9H204.4c-15.5 0-28.1-14.4-28.1-32.1V429.7L513 177.2l336.6 252.5v353.7z" p-id="781"></path></svg>