<?xml version="1.0" standalone="no"?><!DOCTYPE svg PUBLIC "-//W3C//DTD SVG 1.1//EN" "http://www.w3.org/Graphics/SVG/1.1/DTD/svg11.dtd"><svg t="1562837290508" class="icon" viewBox="0 0 1027 1024" version="1.1" xmlns="http://www.w3.org/2000/svg" p-id="2452" xmlns:xlink="http://www.w3.org/1999/xlink" width="200.5859375" height="200"><defs><style type="text/css"></style></defs><path d="M494.933333 989.866667c-10.24 0-17.066667-6.826667-17.066666-17.066667V648.533333c0-75.093333 68.266667-136.533333 153.6-136.533333h27.306666l-54.613333-54.613333c-6.826667-6.826667-6.826667-17.066667 0-23.893334s17.066667-6.826667 23.893333 0l85.333334 85.333334c3.413333 3.413333 6.826667 13.653333 3.413333 17.066666-3.413333 6.826667-10.24 10.24-17.066667 10.24h-68.266666c-58.026667 0-119.466667 37.546667-119.466667 102.4v324.266667c0 10.24-6.826667 17.066667-17.066667 17.066667z" fill="#000000" p-id="2453"></path><path d="M614.4 631.466667c-3.413333 0-10.24 0-13.653333-3.413334-6.826667-6.826667-6.826667-17.066667 0-23.893333l85.333333-85.333333c6.826667-6.826667 17.066667-6.826667 23.893333 0s6.826667 17.066667 0 23.893333l-85.333333 85.333333c0 3.413333-6.826667 3.413333-10.24 3.413334z" fill="#000000" p-id="2454"></path><path d="M791.893333 750.933333h-194.56c-10.24 0-17.066667-6.826667-17.066666-17.066666s6.826667-17.066667 17.066666-17.066667h194.56c109.226667 0 197.973333-88.746667 197.973334-197.973333s-88.746667-197.973333-197.973334-197.973334c-10.24 0-20.48-6.826667-20.48-13.653333-20.48-136.533333-139.946667-238.933333-279.893333-238.933333C334.506667 68.266667 204.8 194.56 204.8 351.573333c0 13.653333 0 23.893333 3.413333 40.96 0 3.413333 0 10.24-3.413333 13.653334-3.413333 3.413333-10.24 3.413333-13.653333 3.413333h-3.413334C102.4 409.6 34.133333 477.866667 34.133333 563.2S102.4 716.8 187.733333 716.8h204.8c10.24 0 17.066667 6.826667 17.066667 17.066667s-6.826667 17.066667-17.066667 17.066666h-204.8c-102.4 0-187.733333-85.333333-187.733333-187.733333 0-98.986667 75.093333-177.493333 174.08-187.733333v-27.306667C170.666667 174.08 314.026667 34.133333 491.52 34.133333c153.6 0 283.306667 109.226667 314.026667 256 122.88 6.826667 221.866667 105.813333 221.866666 228.693334C1024 648.533333 918.186667 750.933333 791.893333 750.933333z" fill="#000000" p-id="2455"></path></svg>