<?xml version="1.0" standalone="no"?><!DOCTYPE svg PUBLIC "-//W3C//DTD SVG 1.1//EN" "http://www.w3.org/Graphics/SVG/1.1/DTD/svg11.dtd"><svg t="1572014694634" class="icon" viewBox="0 0 1024 1024" version="1.1" xmlns="http://www.w3.org/2000/svg" p-id="3156" xmlns:xlink="http://www.w3.org/1999/xlink" width="200" height="200"><defs><style type="text/css"></style></defs><path d="M1003.966836 453.948509a18.6368 18.6368 0 0 0-4.040145-20.312436L776.527127 210.255127a18.599564 18.599564 0 1 0-26.326109 26.326109L941.837964 428.218182H539.945891a18.618182 18.618182 0 1 0 0 37.236363h401.892073L750.201018 657.091491a18.599564 18.599564 0 1 0 26.326109 26.326109l223.399564-223.399564c1.712873-1.712873 3.090618-3.779491 4.040145-6.069527z" fill="" p-id="3157"></path><path d="M670.273164 539.927273a18.618182 18.618182 0 0 0-18.618182 18.618182v297.890909h-186.181818V148.945455a18.618182 18.618182 0 0 0-12.976873-17.743128L157.174691 37.236364h494.480291v297.890909a18.618182 18.618182 0 1 0 37.236363 0V18.618182a18.618182 18.618182 0 0 0-18.618181-18.618182h-633.018182c-0.595782 0-1.117091 0.279273-1.694255 0.335127-1.042618 0.093091-1.954909 0.335127-2.941672 0.595782a18.096873 18.096873 0 0 0-4.82211 2.010764c-0.484073 0.297891-1.061236 0.297891-1.52669 0.633018-0.577164 0.428218-1.024 0.968145-1.54531 1.4336-0.316509 0.297891-0.651636 0.558545-0.949527 0.875054a19.362909 19.362909 0 0 0-3.425745 5.082764c-0.167564 0.372364-0.260655 0.744727-0.4096 1.117091a18.580945 18.580945 0 0 0-1.303273 6.534982v856.436363c0 2.327273 0.539927 4.524218 1.340509 6.609455 0.260655 0.688873 0.651636 1.266036 0.986764 1.917673a17.910691 17.910691 0 0 0 7.726545 7.745163c0.688873 0.372364 1.321891 0.763345 2.066618 1.042619 0.316509 0.111709 0.558545 0.335127 0.875055 0.446836l409.6 130.327273A18.655418 18.655418 0 0 0 465.473164 1005.381818v-111.709091h204.8a18.618182 18.618182 0 0 0 18.618181-18.618182V558.545455a18.618182 18.618182 0 0 0-18.618181-18.618182z m-242.036364 440.003491l-372.363636-118.486109V44.069236l372.363636 118.486109v817.375419z" fill="" p-id="3158"></path></svg>