<?xml version="1.0" standalone="no"?><!DOCTYPE svg PUBLIC "-//W3C//DTD SVG 1.1//EN" "http://www.w3.org/Graphics/SVG/1.1/DTD/svg11.dtd"><svg t="1572014666636" class="icon" viewBox="0 0 1024 1024" version="1.1" xmlns="http://www.w3.org/2000/svg" p-id="2396" xmlns:xlink="http://www.w3.org/1999/xlink" width="200" height="200"><defs><style type="text/css"></style></defs><path d="M917.333333 512h85.333334v85.333333h-85.333334v85.333334h-85.333333v-85.333334h-85.333333v-85.333333h85.333333v-85.333333h85.333333v85.333333z m-386.005333 123.52L149.333333 756.565333V853.333333h682.666667v-85.333333h85.333333v85.333333h0.362667v85.333334H64V694.101333l303.658667-96.213333C289.472 542.08 234.666667 439.104 234.666667 339.2 234.666667 198.890667 349.376 85.333333 490.666667 85.333333s256 113.557333 256 253.866667c0 118.016-76.437333 240.256-177.493334 283.989333l0.085334 0.32-3.2 1.002667c-11.306667 4.693333-22.890667 8.384-34.730667 11.008zM490.666667 554.666667c84.586667 0 170.666667-111.381333 170.666666-215.466667 0-92.992-76.309333-168.533333-170.666666-168.533333s-170.666667 75.541333-170.666667 168.533333c0 104.085333 86.08 215.466667 170.666667 215.466667z" p-id="2397"></path></svg>