<?xml version="1.0" standalone="no"?><!DOCTYPE svg PUBLIC "-//W3C//DTD SVG 1.1//EN" "http://www.w3.org/Graphics/SVG/1.1/DTD/svg11.dtd"><svg t="1569318471941" class="icon" viewBox="0 0 1024 1024" version="1.1" xmlns="http://www.w3.org/2000/svg" p-id="4635" xmlns:xlink="http://www.w3.org/1999/xlink" width="200" height="200"><defs><style type="text/css"></style></defs><path d="M858.453333 371.626667l-206.08-206.08A128 128 0 0 0 561.92 128H256a128 128 0 0 0-128 128v512a128 128 0 0 0 128 128h512a128 128 0 0 0 128-128v-305.92a128 128 0 0 0-37.546667-90.453333zM426.666667 810.666667v-85.333334h170.666666v85.333334z m384-42.666667a42.666667 42.666667 0 0 1-42.666667 42.666667h-85.333333v-128a42.666667 42.666667 0 0 0-42.666667-42.666667H384a42.666667 42.666667 0 0 0-42.666667 42.666667v128H256a42.666667 42.666667 0 0 1-42.666667-42.666667V256a42.666667 42.666667 0 0 1 42.666667-42.666667h85.333333v213.333334a42.666667 42.666667 0 0 0 42.666667 42.666666h170.666667a42.666667 42.666667 0 0 0 0-85.333333h-128V213.333333h135.253333a44.8 44.8 0 0 1 30.293333 12.373334l206.08 206.08a42.666667 42.666667 0 0 1 12.373334 30.293333z" p-id="4636"></path></svg>