<?xml version="1.0" standalone="no"?><!DOCTYPE svg PUBLIC "-//W3C//DTD SVG 1.1//EN" "http://www.w3.org/Graphics/SVG/1.1/DTD/svg11.dtd"><svg t="1563538097000" class="icon" viewBox="0 0 1024 1024" version="1.1" xmlns="http://www.w3.org/2000/svg" p-id="2388" xmlns:xlink="http://www.w3.org/1999/xlink" width="200" height="200"><defs><style type="text/css"></style></defs><path d="M798.24071 77.285869A519.019239 519.019239 0 0 1 1023.959682 506.388704C1023.959682 791.817287 794.272869 1024 511.980161 1024s-511.979521-232.182713-511.979521-517.611296a518.955242 518.955242 0 0 1 225.718971-429.102835 35.454582 35.454582 0 0 1 49.598016 9.663613 36.350546 36.350546 0 0 1-9.599616 50.173993 446.574137 446.574137 0 0 0-194.296228 369.265229c0 245.622175 197.624095 445.422183 440.558378 445.422184 242.934283 0 440.558378-199.800008 440.558377-445.422184a446.638134 446.638134 0 0 0-194.296228-369.265229 36.350546 36.350546 0 0 1-9.599616-50.173993 35.454582 35.454582 0 0 1 49.598016-9.663613zM298.228711 635.023559c0-19.967201 15.99936-36.094556 35.710571-36.094556h142.906284V502.612855H333.939282a35.902564 35.902564 0 0 1-35.710571-36.094556c0-19.967201 15.99936-36.094556 35.710571-36.094556h92.348307l-77.820888-78.716851a36.414543 36.414543 0 0 1 0-51.069957 35.454582 35.454582 0 0 1 50.557978 0l113.531459 114.811407 113.531459-114.811407a35.454582 35.454582 0 0 1 50.557977 0 36.414543 36.414543 0 0 1 0 51.069957l-77.884884 78.716851H691.172993c19.775209 0 35.774569 16.127355 35.774569 36.094556 0 19.903204-15.99936 36.094556-35.774569 36.094556H548.266709v96.316148h142.842287c19.775209 0 35.774569 16.127355 35.774569 36.094556 0 19.903204-15.99936 36.094556-35.774569 36.094556H548.266709v113.595456c0 19.967201-15.99936 36.094556-35.710571 36.094557a35.902564 35.902564 0 0 1-35.710572-36.094557v-113.595456H333.939282a35.902564 35.902564 0 0 1-35.710571-36.094556zM536.619175 6.76069l96.828127 83.964641a28.158874 28.158874 0 0 1 3.00788 39.422423 27.518899 27.518899 0 0 1-39.038439 3.071877L517.355946 63.782409c-0.383985-0.25599 0.575977-0.25599 0.447982-0.191993L424.49566 134.371585a27.518899 27.518899 0 0 1-38.782449-5.631775 28.158874 28.158874 0 0 1 5.567778-39.166433L501.99656 5.608736a27.454902 27.454902 0 0 1 34.558618 1.151954z" p-id="2389"></path></svg>