<?xml version="1.0" standalone="no"?><!DOCTYPE svg PUBLIC "-//W3C//DTD SVG 1.1//EN" "http://www.w3.org/Graphics/SVG/1.1/DTD/svg11.dtd"><svg t="1574063970469" class="icon" viewBox="0 0 1024 1024" version="1.1" xmlns="http://www.w3.org/2000/svg" p-id="8728" xmlns:xlink="http://www.w3.org/1999/xlink" width="200" height="200"><defs><style type="text/css"></style></defs><path d="M198.256325 685.261432V81.005345H149.969355v604.134458c-45.489488 10.825039-79.30253 51.81423-79.30253 100.587718s33.813042 89.64105 79.30253 100.587718v56.557786h48.28697v-56.557786c45.489488-10.825039 79.30253-51.81423 79.30253-100.587718s-33.813042-89.64105-79.30253-100.466089z m0 150.090985c-1.824445 0.851408-3.648889 1.702815-5.473334 2.310963-0.12163 0.12163-0.364889 0.12163-0.486519 0.12163l-2.189333 0.729778c-0.243259 0.12163-0.608148 0.12163-0.851408 0.243259-0.608148 0.243259-1.337926 0.364889-1.946074 0.486519-0.364889 0.12163-0.608148 0.12163-0.973037 0.243259-0.608148 0.12163-1.216296 0.243259-1.946075 0.364889-0.364889 0.12163-0.729778 0.12163-1.094667 0.243259-0.608148 0.12163-1.216296 0.243259-1.946074 0.24326-0.364889 0-0.729778 0.12163-1.094667 0.121629-0.729778 0.12163-1.337926 0.12163-2.067704 0.12163-0.364889 0-0.608148 0-0.973037 0.12163-0.973037 0-2.067704 0.12163-3.040741 0.121629s-2.067704 0-3.040741-0.121629c-0.364889 0-0.608148 0-0.973038-0.12163-0.729778 0-1.337926-0.12163-2.067704-0.12163-0.364889 0-0.729778-0.12163-1.094666-0.121629-0.608148-0.12163-1.337926-0.12163-1.946075-0.24326-0.364889 0-0.729778-0.12163-1.094667-0.243259-0.608148-0.12163-1.216296-0.243259-1.946074-0.364889-0.364889-0.12163-0.608148-0.12163-0.973037-0.243259-0.608148-0.12163-1.337926-0.364889-1.946074-0.486519-0.243259-0.12163-0.608148-0.12163-0.851408-0.243259l-2.189334-0.729778c-0.12163-0.12163-0.364889-0.12163-0.486518-0.12163-1.946074-0.729778-3.770519-1.459556-5.473334-2.310963-18.366077-9.000594-31.01556-27.853189-31.01556-49.624896S131.724908 745.103219 150.090985 736.102625c1.824445-0.851408 3.648889-1.702815 5.473334-2.310963 0.12163-0.12163 0.364889-0.12163 0.486518-0.12163l2.189334-0.729778c0.243259-0.12163 0.608148-0.12163 0.851408-0.243259 0.608148-0.243259 1.337926-0.364889 1.946074-0.486519 0.364889-0.12163 0.608148-0.12163 0.973037-0.243259 0.608148-0.12163 1.216296-0.243259 1.946074-0.364889 0.364889-0.12163 0.729778-0.12163 1.094667-0.243259 0.608148-0.12163 1.216296-0.243259 1.946075-0.24326 0.364889 0 0.729778-0.12163 1.094666-0.121629 0.729778-0.12163 1.337926-0.12163 2.067704-0.12163 0.364889 0 0.608148 0 0.973038-0.121629 0.973037 0 2.067704-0.12163 3.040741-0.12163s2.067704 0 3.040741 0.12163c0.364889 0 0.608148 0 0.973037 0.121629 0.729778 0 1.337926 0.12163 2.067704 0.12163 0.364889 0 0.729778 0.12163 1.094667 0.121629 0.608148 0.12163 1.337926 0.12163 1.946074 0.24326 0.364889 0 0.729778 0.12163 1.094667 0.243259 0.608148 0.12163 1.216296 0.243259 1.946075 0.364889 0.364889 0.12163 0.608148 0.12163 0.973037 0.243259 0.608148 0.12163 1.337926 0.364889 1.946074 0.486519 0.243259 0.12163 0.608148 0.12163 0.851408 0.243259l2.189333 0.729778c0.12163 0.12163 0.364889 0.12163 0.486519 0.12163 1.946074 0.729778 3.770519 1.459556 5.473334 2.310963 18.366077 9.000594 31.01556 27.853189 31.01556 49.624896 0 21.893337-12.649483 40.745932-31.01556 49.624896zM536.143485 146.442095V81.005345h-48.28697v65.315121c-45.489488 10.825039-79.30253 51.81423-79.30253 100.587718s33.813042 89.64105 79.30253 100.587718v595.377123h48.28697V347.495902c45.489488-10.825039 79.30253-51.81423 79.30253-100.587718s-33.813042-89.64105-79.30253-100.466089zM514.858297 302.006414h-2.675853c-8.757335 0-16.906521-2.067704-24.325929-5.716593v0.121629c-18.366077-9.000594-31.01556-27.853189-31.01556-49.624896s12.649483-40.624302 31.01556-49.624896v0.12163c7.297779-3.648889 15.568595-5.716593 24.325929-5.716594h2.675853c29.069486 1.459556 52.300748 25.542226 52.300748 55.098231 0 29.799264-23.109633 53.881934-52.300748 55.341489zM874.030645 476.058439V81.005345h-48.28697v394.931465c-45.489488 10.825039-79.30253 51.81423-79.30253 100.587718s33.813042 89.64105 79.30253 100.587718v265.760779h48.28697V677.112246c45.489488-10.825039 79.30253-51.81423 79.30253-100.587718s-33.813042-89.64105-79.30253-100.466089z m0 150.090985c-1.824445 0.851408-3.648889 1.702815-5.473334 2.310963-0.12163 0.12163-0.364889 0.12163-0.486519 0.24326l-2.189333 0.729777c-0.243259 0.12163-0.608148 0.12163-0.851408 0.24326-0.608148 0.243259-1.337926 0.364889-1.946074 0.486518-0.364889 0.12163-0.608148 0.12163-0.973037 0.24326-0.608148 0.12163-1.216296 0.243259-1.946075 0.364889-0.364889 0.12163-0.729778 0.12163-1.094667 0.243259-0.608148 0.12163-1.216296 0.243259-1.946074 0.243259-0.364889 0-0.729778 0.12163-1.094667 0.12163-0.729778 0.12163-1.337926 0.12163-2.067704 0.121629-0.364889 0-0.608148 0-0.973037 0.12163-0.973037 0-2.067704 0.12163-3.040741 0.12163s-2.067704 0-3.040741-0.12163c-0.364889 0-0.608148 0-0.973038-0.12163-0.729778 0-1.337926-0.12163-2.067704-0.121629-0.364889 0-0.729778-0.12163-1.094666-0.12163-0.608148-0.12163-1.337926-0.12163-1.946075-0.243259-0.364889 0-0.729778-0.12163-1.094667-0.243259-0.608148-0.12163-1.216296-0.243259-1.946074-0.364889-0.364889-0.12163-0.608148-0.12163-0.973037-0.24326-0.608148-0.12163-1.337926-0.364889-1.946074-0.486518-0.243259-0.12163-0.608148-0.12163-0.851408-0.24326l-2.189334-0.729777c-0.12163-0.12163-0.364889-0.12163-0.486518-0.24326-1.946074-0.729778-3.770519-1.459556-5.473334-2.310963-18.366077-9.000594-31.01556-27.853189-31.01556-49.624896s12.649483-40.624302 31.01556-49.624896c1.824445-0.851408 3.648889-1.702815 5.473334-2.310964 0.12163-0.12163 0.364889-0.12163 0.486518-0.121629l2.189334-0.729778c0.243259-0.12163 0.608148-0.12163 0.851408-0.243259 0.608148-0.243259 1.337926-0.364889 1.946074-0.486519 0.364889-0.12163 0.608148-0.12163 0.973037-0.243259 0.608148-0.12163 1.216296-0.243259 1.946074-0.364889 0.364889-0.12163 0.729778-0.12163 1.094667-0.243259 0.608148-0.12163 1.337926-0.243259 1.946075-0.24326 0.364889 0 0.729778-0.12163 1.094666-0.121629 0.729778-0.12163 1.337926-0.12163 2.067704-0.12163 0.364889 0 0.608148 0 0.973038-0.12163 0.973037 0 2.067704-0.12163 3.040741-0.121629s2.067704 0 3.040741 0.121629c0.364889 0 0.608148 0 0.973037 0.12163 0.729778 0 1.337926 0.12163 2.067704 0.12163 0.364889 0 0.729778 0.12163 1.094667 0.121629 0.608148 0.12163 1.337926 0.12163 1.946074 0.24326 0.364889 0 0.729778 0.12163 1.094667 0.243259 0.608148 0.12163 1.216296 0.243259 1.946075 0.364889 0.364889 0.12163 0.608148 0.12163 0.973037 0.243259 0.608148 0.12163 1.337926 0.364889 1.946074 0.486519 0.243259 0.12163 0.608148 0.12163 0.851408 0.243259l2.189333 0.729778c0.12163 0.12163 0.364889 0.12163 0.486519 0.121629 1.946074 0.729778 3.770519 1.459556 5.473334 2.310964 18.366077 9.000594 31.01556 27.853189 31.01556 49.624896 0 21.893337-12.649483 40.745932-31.01556 49.624896z" p-id="8729"></path></svg>