<?xml version="1.0" standalone="no"?><!DOCTYPE svg PUBLIC "-//W3C//DTD SVG 1.1//EN" "http://www.w3.org/Graphics/SVG/1.1/DTD/svg11.dtd"><svg t="1565690886701" class="icon" viewBox="0 0 1024 1024" version="1.1" xmlns="http://www.w3.org/2000/svg" p-id="19804" xmlns:xlink="http://www.w3.org/1999/xlink" width="200" height="200"><defs><style type="text/css"></style></defs><path d="M438.528138 638.719442a53.1839 53.1839 0 0 1-37.63193-15.61597 250.239531 250.239531 0 0 1 0-353.343338l196.607632-196.607631A248.575534 248.575534 0 0 1 774.271508 0.00064c66.623875 0 129.343757 25.983951 176.639669 73.151863a250.239531 250.239531 0 0 1 0 353.343337l-89.791832 89.791832a53.3759 53.3759 0 0 1-89.855831-23.487956 53.4399 53.4399 0 0 1 14.527973-51.775903l89.855831-89.855831a143.487731 143.487731 0 0 0 0-202.68762 142.591733 142.591733 0 0 0-101.37581-41.983922 142.399733 142.399733 0 0 0-101.37581 41.983922L476.160067 345.151993a143.487731 143.487731 0 0 0 0 202.68762 53.1839 53.1839 0 0 1-37.631929 90.879829zM249.856492 1023.99872a248.127535 248.127535 0 0 1-176.639669-73.151863 250.047531 250.047531 0 0 1 0-353.343337l89.855831-89.855832A53.3119 53.3119 0 1 1 238.336513 583.039547L148.480682 672.895378a143.423731 143.423731 0 0 0 101.37581 244.607542 142.079734 142.079734 0 0 0 101.375809-41.983922l196.671632-196.479631a143.551731 143.551731 0 0 0 0-202.75162 53.3119 53.3119 0 1 1 75.263859-75.391859 250.175531 250.175531 0 0 1 0 353.343338l-196.543632 196.607631A248.127535 248.127535 0 0 1 249.856492 1023.99872z" p-id="19805"></path></svg>