<?xml version="1.0" standalone="no"?><!DOCTYPE svg PUBLIC "-//W3C//DTD SVG 1.1//EN" "http://www.w3.org/Graphics/SVG/1.1/DTD/svg11.dtd"><svg t="1565680981755" class="icon" viewBox="0 0 1195 1024" version="1.1" xmlns="http://www.w3.org/2000/svg" p-id="18472" xmlns:xlink="http://www.w3.org/1999/xlink" width="233.3984375" height="200"><defs><style type="text/css"></style></defs><path d="M671.317333 546.133333a491.946667 491.946667 0 0 1 308.650667 404.309334 48.128 48.128 0 0 1-47.701333 53.589333 48.213333 48.213333 0 0 1-47.701334-43.264 396.458667 396.458667 0 0 0-393.557333-352.768 396.288 396.288 0 0 0-393.472 352.682667 48.128 48.128 0 0 1-47.701333 43.178666 48.128 48.128 0 0 1-47.701334-53.589333A492.373333 492.373333 0 0 1 311.04 546.133333 293.888 293.888 0 0 1 502.784 20.138667a295.253333 295.253333 0 0 1 281.941333 281.258666 293.12 293.12 0 0 1-113.493333 244.821334zM292.949333 314.026667C292.949333 423.253333 381.952 512 490.922667 512c109.226667 0 198.058667-88.746667 198.058666-197.973333 0-109.226667-88.746667-197.973333-197.973333-197.973334-109.226667 0-197.973333 88.746667-197.973333 197.973334z m643.413334 214.442666a432.128 432.128 0 0 1 259.157333 343.210667 48.128 48.128 0 0 1-47.530667 54.613333 48.384 48.384 0 0 1-47.786666-42.666666A336.810667 336.810667 0 0 0 838.826667 598.186667a60.842667 60.842667 0 0 1-47.786667-59.392c0-24.746667 14.506667-47.274667 37.461333-56.32a168.106667 168.106667 0 0 0-5.888-314.794667 48.042667 48.042667 0 0 1 32.256-90.624 263.936 263.936 0 0 1 81.493334 451.498667z" p-id="18473"></path></svg>