<?xml version="1.0" standalone="no"?><!DOCTYPE svg PUBLIC "-//W3C//DTD SVG 1.1//EN" "http://www.w3.org/Graphics/SVG/1.1/DTD/svg11.dtd"><svg t="1565673727578" class="icon" viewBox="0 0 1024 1024" version="1.1" xmlns="http://www.w3.org/2000/svg" p-id="7034" xmlns:xlink="http://www.w3.org/1999/xlink" width="200" height="200"><defs><style type="text/css"></style></defs><path d="M115.152 356.453c-1.492-9.942-2.486-18.724-3.314-25.849-0.829-7.125-0.995-14.251-0.995-21.541 0-22.867 3.314-38.112 9.611-45.237 6.463-7.125 15.41-10.77 27.01-10.77h198.343L410.596 5.001c40.266 2.818 67.109 8.285 80.863 16.239 13.753 7.954 20.546 17.564 20.546 28.998v15.079L460.141 252.89h239.438L766.522 4.836c40.266 2.817 67.108 8.285 80.862 16.238 13.753 7.954 20.547 17.565 20.547 28.998 0 5.8-0.829 10.771-2.154 15.079l-49.71 187.739h170.34c2.817 8.617 4.309 16.902 4.309 24.855v22.701c0 21.541-3.314 36.289-9.776 44.242-6.463 7.954-15.41 11.765-27.01 11.765H788.063L710.35 643.281h200.498c1.326 10.108 2.485 19.056 3.314 27.01a217.169 217.169 0 0 1 1.159 22.701c0 37.448-12.262 56.007-36.619 56.007H682.181l-73.24 269.595c-40.265-2.816-66.942-8.285-79.867-16.072-12.925-7.954-19.387-17.564-19.387-29.164 0-5.634 0.662-10.107 2.154-12.925l56.006-211.269H326.421l-71.086 269.597c-40.265-2.817-67.606-8.286-82.022-16.074-14.416-7.953-21.541-17.564-21.541-29.163 0-2.816 0.331-4.971 0.994-6.462 0.663-1.326 0.994-3.646 0.994-6.463l58.327-211.269H39.592c-2.817-10.107-4.308-19.056-4.308-27.009V699.62c0-21.541 3.314-36.289 9.776-44.242 6.463-7.954 15.41-11.765 27.01-11.765h168.186l75.394-286.829H115.152v-0.331z m239.272 286.828H595.85l77.714-286.828H432.138l-77.714 286.828z" p-id="7035"></path></svg>