<?xml version="1.0" standalone="no"?><!DOCTYPE svg PUBLIC "-//W3C//DTD SVG 1.1//EN" "http://www.w3.org/Graphics/SVG/1.1/DTD/svg11.dtd"><svg t="1546658520874" class="icon" style="" viewBox="0 0 1024 1024" version="1.1" xmlns="http://www.w3.org/2000/svg" p-id="13009" xmlns:xlink="http://www.w3.org/1999/xlink" width="200" height="200"><defs><style type="text/css"></style></defs><path d="M309 541l116 0 0 58-116 0 0-58Z" p-id="13010"></path><path d="M135 193l116 0 0 58-116 0 0-58Z" p-id="13011"></path><path d="M309 193l116 0 0 58-116 0 0-58Z" p-id="13012"></path><path d="M309 367l116 0 0 58-116 0 0-58Z" p-id="13013"></path><path d="M135 367l116 0 0 58-116 0 0-58Z" p-id="13014"></path><path d="M773 541l116 0 0 58-116 0 0-58Z" p-id="13015"></path><path d="M773 715l116 0 0 58-116 0 0-58Z" p-id="13016"></path><path d="M947 309 715 309c-32 0-58 25.9-58 58l0 580c0 32 26 58 58 58l232 0c32 0 58-26 58-58L1005 367C1005 335 979 309 947 309zM947 947 715 947 715 367l232 0L947 947z" p-id="13017"></path><path d="M135 541l116 0 0 58-116 0 0-58Z" p-id="13018"></path><path d="M483 19 77 19c-32 0-58 26-58 58l0 870c0 32 26 58 58 58l406 0c32 0 58-26 58-58L541 77C541 45 515 19 483 19zM483 947 77 947 77 77l406 0L483 947z" p-id="13019"></path></svg>