<?xml version="1.0" standalone="no"?><!DOCTYPE svg PUBLIC "-//W3C//DTD SVG 1.1//EN" "http://www.w3.org/Graphics/SVG/1.1/DTD/svg11.dtd"><svg t="1563010436144" class="icon" viewBox="0 0 1024 1024" version="1.1" xmlns="http://www.w3.org/2000/svg" p-id="4738" xmlns:xlink="http://www.w3.org/1999/xlink" width="200" height="200"><defs><style type="text/css"></style></defs><path d="M819.218448 577.111635a32.383215 32.383215 0 0 0-9.714964-44.688837 485.748223 485.748223 0 0 0-122.408552-56.994458 259.065719 259.065719 0 1 0-284.972291 0A488.986545 488.986545 0 0 0 56.269906 942.394299a32.383215 32.383215 0 0 0 64.76643 0A423.57245 423.57245 0 0 1 774.529612 587.474264a32.383215 32.383215 0 0 0 44.688836-10.362629zM352.25249 263.642115a194.299289 194.299289 0 1 1 194.299289 194.299289 194.299289 194.299289 0 0 1-194.299289-194.299289z" fill="#666666" p-id="4739"></path><path d="M898.233493 834.882025V762.343624h17.486936a32.383215 32.383215 0 0 0 0-64.76643H898.233493v-50.517815h17.486936a32.383215 32.383215 0 0 0 0-64.76643H898.233493v-64.76643a32.383215 32.383215 0 1 0-64.76643 0v315.412513a97.797309 97.797309 0 1 0 64.76643 0z m-32.383215 124.99921a33.030879 33.030879 0 1 1 33.030879-33.03088 33.030879 33.030879 0 0 1-31.087886 32.383215z" fill="#666666" p-id="4740"></path></svg>