<?xml version="1.0" standalone="no"?><!DOCTYPE svg PUBLIC "-//W3C//DTD SVG 1.1//EN" "http://www.w3.org/Graphics/SVG/1.1/DTD/svg11.dtd"><svg t="1563003214056" class="icon" viewBox="0 0 1024 1024" version="1.1" xmlns="http://www.w3.org/2000/svg" p-id="3648" xmlns:xlink="http://www.w3.org/1999/xlink" width="200" height="200"><defs><style type="text/css"></style></defs><path d="M1023.296 864c0 10.944-2.24 21.312-3.264 32h-64c1.216-10.624 3.264-21.056 3.264-32a287.68 287.68 0 0 0-281.792-287.36 476.352 476.352 0 0 0-61.44-47.488c3.456-8 5.312-16.704 8-25.024C639.104 508.8 654.72 512 671.296 512a160 160 0 0 0 0-320 158.72 158.72 0 0 0-102.08 37.696 286.848 286.848 0 0 0-46.656-44.032A222.272 222.272 0 0 1 671.296 128 224 224 0 0 1 798.08 536.512 351.36 351.36 0 0 1 1023.296 864zM478.08 600.512A351.04 351.04 0 0 1 700.8 896h-64.768c-16.064-143.808-136.64-256-284.736-256S82.624 752.192 66.496 896H1.792a350.976 350.976 0 0 1 222.72-295.488 224 224 0 1 1 253.568 0zM351.296 256a160 160 0 1 0 0 320 160 160 0 0 0 0-320z" p-id="3649"></path></svg>