<?xml version="1.0" standalone="no"?><!DOCTYPE svg PUBLIC "-//W3C//DTD SVG 1.1//EN" "http://www.w3.org/Graphics/SVG/1.1/DTD/svg11.dtd"><svg t="1563345931528" class="icon" viewBox="0 0 1024 1024" version="1.1" xmlns="http://www.w3.org/2000/svg" p-id="16879" xmlns:xlink="http://www.w3.org/1999/xlink" width="200" height="200"><defs><style type="text/css"></style></defs><path d="M613.5 319.6H129.2c-17.6 0-32-14.4-32-32s14.4-32 32-32h484.3c17.6 0 32 14.4 32 32 0.1 17.6-14.4 32-32 32zM479.2 514.5H129c-17.6 0-32-14.4-32-32s14.4-32 32-32h350.2c17.6 0 32 14.4 32 32s-14.4 32-32 32zM351.5 703.8H129.4c-17.6 0-32-14.4-32-32s14.4-32 32-32h222.1c17.6 0 32 14.4 32 32s-14.4 32-32 32zM750.8 541.8c55.9 0 108.4 21.7 147.8 61.2 39.5 39.5 61.3 92 61.3 147.8s-21.7 108.4-61.3 147.8c-39.5 39.5-92 61.2-147.8 61.2-55.9 0-108.4-21.7-147.8-61.2-39.5-39.5-61.3-92-61.3-147.8S563.4 642.4 603 603c39.4-39.4 92-61.2 147.8-61.2m0-64c-150.8 0-273.2 122.3-273.2 273.1S600 1024 750.8 1024 1024 901.7 1024 750.9 901.8 477.8 750.8 477.8z" fill="" p-id="16880"></path><path d="M808.4 606.5l-23.7 49.9c-16 32.7-25 52.5-27.3 59.1-1.4 4.2-2.6 7.6-3.7 10.4h-1.4c-7.8-19.2-26.1-59-55.4-119.6h-64.5l74.3 130.5H651v39.3h69.1v29.7H651v39.6h69.1v54.4h60.4v-54.4h67v-39.6h-66.9V776h66.9v-39.1h-54l76.3-130.5h-61.4z" fill="" p-id="16881"></path><path d="M416.3 928.6H152.1C68.2 928.6 0 860.4 0 776.5V152.1C0 68.2 68.2 0 152.1 0h531.2c83.9 0 152.1 68.2 152.1 152.1v265.4c0 17.7-14.3 32-32 32s-32-14.3-32-32V152.1c0-48.6-39.5-88-88.1-88H152.1c-48.6 0-88.1 39.5-88.1 88v624.4c0 48.6 39.5 88 88.1 88h264.1c17.7 0 32 14.3 32 32 0.1 17.8-14.2 32.1-31.9 32.1z" fill="" p-id="16882"></path></svg>