<?xml version="1.0" standalone="no"?><!DOCTYPE svg PUBLIC "-//W3C//DTD SVG 1.1//EN" "http://www.w3.org/Graphics/SVG/1.1/DTD/svg11.dtd"><svg t="1563345421438" class="icon" viewBox="0 0 1024 1024" version="1.1" xmlns="http://www.w3.org/2000/svg" p-id="14849" xmlns:xlink="http://www.w3.org/1999/xlink" width="200" height="200"><defs><style type="text/css"></style></defs><path d="M820.819484 273.272897 793.987373 273.272897c13.606903-23.070438 19.577894-45.074591 17.669428-65.485457-1.583055-17.083074-9.679453-41.514509-39.347147-60.98598-24.597211-16.181541-56.228629-20.149922-91.321892-11.383258-56.909128 14.288424-124.261095 63.410192-168.546717 122.774231-44.312228-59.363016-111.610984-108.485807-168.518065-122.774231-35.121915-8.823969-66.780963-4.827959-91.375104 11.383258-29.642111 19.47147-37.739533 43.902906-39.321564 60.98598-1.907443 20.410865 4.00829 42.416042 17.669428 65.485457l-26.832112 0c-40.628326 0-73.692373 33.089629-73.692373 73.747631l0 94.988398c0 32.162514 21.214161 60.588937 51.90516 70.134337-2.917446 8.070816-4.444219 16.413831-4.444219 24.868387l0 284.980543c0 40.630373 33.101909 73.733305 73.733305 73.733305l521.833973 0c40.628326 0 73.678046-33.101909 73.678046-73.733305l0-284.981566c0-8.508791-1.471514-16.878412-4.38896-24.89704 30.645974-9.598612 51.809993-38.025035 51.809993-70.106708l0-94.963839C894.498554 306.389132 861.448834 273.272897 820.819484 273.272897M773.399475 843.208401 538.674523 843.208401 538.674523 515.76986l234.725976 0c11.698436 0 21.185508 9.543354 21.185508 21.24179l0 284.980543C794.584983 833.691653 785.097912 843.208401 773.399475 843.208401M567.57883 273.272897c37.33021-43.058678 86.329181-76.896344 126.116349-86.877673 20.667715-5.179976 37.573757-3.761674 49.818639 4.310166 13.008268 8.546653 15.322987 16.168238 15.842827 21.923312 2.070148 21.104667-20.561291 49.558719-31.249725 60.645219L567.57883 273.272897zM841.97941 347.046111l0 94.963839c0 11.698436-9.461489 21.213137-21.159926 21.213137L538.674523 463.223087 538.674523 325.818647l282.144962 0C832.516898 325.818647 841.97941 335.349721 841.97941 347.046111M486.181985 515.76986l0 327.437517L251.565503 843.207377c-11.727089 0-21.216207-9.516748-21.216207-21.215184l0-284.980543c0-11.698436 9.490142-21.24179 21.216207-21.24179L486.181985 515.76986zM265.527492 212.628702c0.51677-5.756097 2.863211-13.377682 15.816221-21.923312 12.159948-8.071839 29.065989-9.559727 49.846268-4.310166 39.565111 9.925047 88.511893 43.765783 125.923968 86.877673L296.721959 273.272897C287.150976 263.579117 263.426645 234.238882 265.527492 212.628702M182.849468 347.046111c0-11.695367 9.490142-21.228487 21.213137-21.228487l282.118356 0 0 137.40444L204.062606 463.222063c-11.724019 0-21.213137-9.513678-21.213137-21.213137L182.849468 347.046111z" p-id="14850"></path></svg>