<?xml version="1.0" standalone="no"?><!DOCTYPE svg PUBLIC "-//W3C//DTD SVG 1.1//EN" "http://www.w3.org/Graphics/SVG/1.1/DTD/svg11.dtd"><svg t="1563460684929" class="icon" viewBox="0 0 1024 1024" version="1.1" xmlns="http://www.w3.org/2000/svg" p-id="4562" xmlns:xlink="http://www.w3.org/1999/xlink" width="200" height="200"><defs><style type="text/css"></style></defs><path d="M512 391.7c-47.7 0-86.4-42.4-86.4-94.8h-33.2c0 71 53.6 128.6 119.7 128.6s119.7-57.6 119.7-128.6h-33.2c-0.2 52.3-38.9 94.8-86.6 94.8z m244.4-75.3C756.4 181.4 647 72 512 72S267.6 181.4 267.6 316.4 377 560.9 512 560.9s244.4-109.5 244.4-244.5zM512 521.8c-113.4 0-205.3-91.9-205.3-205.3S398.6 111.2 512 111.2s205.3 91.9 205.3 205.3c0 113.3-91.9 205.3-205.3 205.3z m0 39.1C296 560.9 120.9 736 120.9 952H160c0-194.4 157.6-352 352-352s352 157.6 352 352h39.1c0-216-175.1-391.1-391.1-391.1z" p-id="4563"></path></svg>