<?xml version="1.0" standalone="no"?><!DOCTYPE svg PUBLIC "-//W3C//DTD SVG 1.1//EN" "http://www.w3.org/Graphics/SVG/1.1/DTD/svg11.dtd"><svg t="1563343609808" class="icon" viewBox="0 0 1024 1024" version="1.1" xmlns="http://www.w3.org/2000/svg" p-id="13457" xmlns:xlink="http://www.w3.org/1999/xlink" width="200" height="200"><defs><style type="text/css"></style></defs><path d="M511.6 127.4c40.3 0 78.3 15.7 106.8 44.2 28.5 28.5 44.2 66.4 44.2 106.8s-15.7 78.3-44.2 106.8c-28.5 28.5-66.4 44.2-106.8 44.2s-78.3-15.7-106.8-44.2c-28.5-28.5-44.2-66.4-44.2-106.8s15.7-78.3 44.2-106.8c28.5-28.5 66.5-44.2 106.8-44.2m0-64c-118.7 0-215 96.3-215 215s96.3 215 215 215 215-96.3 215-215-96.3-215-215-215zM690.4 576.1c45.2 0 88.1 19.5 120.8 54.8 16.4 17.7 29.4 38.4 38.4 61.5 9.5 24.1 14.3 49.7 14.3 76.2v62.7c0 17.9-6.3 34.6-17.8 47.1-5.9 6.4-18.6 17.1-36.9 17.1H216.7c-18.3 0-31-10.7-36.9-17.1-11.5-12.4-17.8-29.1-17.8-47v-62.7c0-26.4 4.8-52.1 14.3-76.2 9.1-23.1 22-43.8 38.4-61.5 32.8-35.4 75.7-54.8 120.8-54.8h30.9l90.6 98c14.3 15.5 34.7 24.4 55.8 24.4 21 0 41.3-8.8 55.7-24.3l91.2-98.2h30.7m0-64h-53.3c-3.3 0-6.5 1.4-8.8 3.8L521.7 630.7c-2.4 2.6-5.6 3.8-8.8 3.8-3.2 0-6.4-1.3-8.8-3.9L398 516c-2.3-2.5-5.5-3.9-8.8-3.9h-53.6C204.9 512.1 98 627.6 98 768.7v62.7c0 70.5 53.4 128.2 118.7 128.2h592.5c65.3 0 118.7-57.7 118.7-128.2v-62.7c0.1-141.1-106.8-256.6-237.5-256.6z" p-id="13458"></path></svg>