<?xml version="1.0" standalone="no"?><!DOCTYPE svg PUBLIC "-//W3C//DTD SVG 1.1//EN" "http://www.w3.org/Graphics/SVG/1.1/DTD/svg11.dtd"><svg t="1563345741155" class="icon" viewBox="0 0 1024 1024" version="1.1" xmlns="http://www.w3.org/2000/svg" p-id="16073" xmlns:xlink="http://www.w3.org/1999/xlink" width="200" height="200"><defs><style type="text/css"></style></defs><path d="M993.476249 590.114012c-33.441805-37.729216-90.03563-37.729216-132.909739 0C829.697151 618.410924 715.65202 716.163894 687.355108 737.600949c-104.612827 71.171022-246.954871 118.332542-312.980999 118.332542-18.864608 0-25.724466-5.144893-28.296912-5.144893 0 0 0 0 0-2.572447 2.572447-6.859858 25.724466-24.009501 36.014252-30.869359 6.859858-6.859858 16.292162-12.004751 21.437055-16.292162 59.166271-49.733967 56.593825-90.03563 49.733967-108.900238-12.004751-33.441805-52.306414-52.306414-95.180523-33.441805-6.859858 2.572447-14.577197 9.432304-25.724466 18.864608-16.292162 12.004751-37.729216 28.296912-64.311164 45.446556-78.030879 49.733967-163.779098 71.171022-213.513065 71.171022L41.671019 794.194773c-36.014252 0-36.014252 30.869359-36.014252 49.733967l0 130.337293c0 45.446556 33.441805 49.733967 47.16152 49.733967l244.382424 0 21.437055 0c12.004751 0 24.009501 0 37.729216 0 280.396676 0 472.472686-61.738718 574.513067-182.643706 64.311164-76.315915 78.030879-126.049882 85.748219-170.638956C1020.058197 639.847979 1012.340858 611.551067 993.476249 590.114012zM969.466748 663.85748c-6.859858 36.014252-18.864608 78.030879-76.315915 147.486937-90.03563 108.900238-272.679336 163.779098-536.783851 163.779098-14.577197 0-25.724466 0-37.729216 0l-265.819479 0 0 0 0-2.572447L52.818288 841.356294l0-2.572447 0 0c68.598575 0 161.206652-30.869359 240.095013-78.030879 28.296912-18.864608 52.306414-36.014252 68.598575-47.16152 6.859858-6.859858 16.292162-12.004751 18.864608-14.577197 9.432304-5.144893 25.724466-2.572447 30.869359 6.859858 2.572447 9.432304-5.144893 30.869359-36.014252 56.593825-5.144893 5.144893-12.004751 9.432304-18.864608 14.577197-25.724466 18.864608-52.306414 37.729216-54.87886 64.311164-2.572447 18.864608 5.144893 33.441805 12.004751 40.301663 12.004751 14.577197 33.441805 21.437055 64.311164 21.437055 83.175772 0 234.95012-56.593825 339.562947-126.049882 33.441805-24.009501 154.346794-128.622328 178.356295-149.201901 21.437055-21.437055 47.16152-21.437055 64.311164-2.572447C967.751784 632.988122 972.039195 649.280283 969.466748 663.85748z" p-id="16074"></path><path d="M533.008314 319.14964l97.75297-76.315915c5.144893-5.144893 5.144893-12.004751 0-16.292162l-16.292162-16.292162c-5.144893-5.144893-12.004751-5.144893-16.292162 0l-87.463183 68.598575-87.463183-68.598575c-5.144893-5.144893-12.004751-5.144893-16.292162 0l-16.292162 16.292162c-5.144893 5.144893-5.144893 12.004751 0 16.292162L485.846793 319.14964c0 2.572447 0 2.572447 0 2.572447l0 37.729216L397.526128 359.451303c-6.859858 0-12.004751 5.144893-12.004751 12.004751l0 25.724466c0 6.859858 5.144893 12.004751 12.004751 12.004751l0-2.572447 87.463183 0 0 78.030879L397.526128 484.643703c-6.859858 0-12.004751 5.144893-12.004751 12.004751l0 25.724466c0 6.859858 5.144893 12.004751 12.004751 12.004751l87.463183 0L484.989311 627.843228c0 6.859858 5.144893 12.004751 12.004751 12.004751l24.009501 0c6.859858 0 12.004751-5.144893 12.004751-12.004751L533.008314 537.807599l87.463183 0c6.859858 0 12.004751-5.144893 12.004751-12.004751l0-25.724466c0-6.859858-5.144893-12.004751-12.004751-12.004751L533.008314 488.073632l0-76.315915 87.463183 0c6.859858 0 12.004751-5.144893 12.004751-12.004751l0-25.724466c0-6.859858-5.144893-12.004751-12.004751-12.004751L533.008314 362.02375l0-37.729216C533.008314 319.14964 533.008314 319.14964 533.008314 319.14964z" p-id="16075"></path><path d="M172.008312 596.97387c-33.441805-61.738718-54.87886-126.049882-49.733967-187.788599C138.566506 198.244652 322.067695 39.610447 530.435867 53.330162c209.225654 16.292162 365.287413 199.79335 351.567698 410.733969l52.306414 2.572447C950.60214 229.11401 773.103327 18.173392 535.58076 1.023748 300.63064-15.268414 91.404986 164.802846 75.112824 404.897859c-6.859858 78.030879 14.577197 159.491687 59.166271 228.090262L172.008312 596.97387z" p-id="16076"></path></svg>