<?xml version="1.0" standalone="no"?><!DOCTYPE svg PUBLIC "-//W3C//DTD SVG 1.1//EN" "http://www.w3.org/Graphics/SVG/1.1/DTD/svg11.dtd"><svg t="1572612941462" class="icon" viewBox="0 0 1024 1024" version="1.1" xmlns="http://www.w3.org/2000/svg" p-id="10746" xmlns:xlink="http://www.w3.org/1999/xlink" width="200" height="200"><defs><style type="text/css"></style></defs><path d="M832 928H192c-52.8 0-96-43.2-96-96V352c0-52.8 43.2-96 96-96h96v-64c0-52.8 43.2-96 96-96h448c52.8 0 96 43.2 96 96v640c0 52.8-43.2 96-96 96zM192 320c-17.6 0-32 14.4-32 32v480c0 17.6 14.4 32 32 32h640c17.6 0 32-14.4 32-32V192c0-17.6-14.4-32-32-32H384c-17.6 0-32 14.4-32 32v544c0 17.6-14.4 32-32 32s-32-14.4-32-32V320h-96z" p-id="10747"></path><path d="M736 672H480c-17.6 0-32-14.4-32-32s14.4-32 32-32h256c17.6 0 32 14.4 32 32s-14.4 32-32 32zM736 416H480c-17.6 0-32-14.4-32-32s14.4-32 32-32h256c17.6 0 32 14.4 32 32s-14.4 32-32 32z" p-id="10748"></path></svg>