<?xml version="1.0" standalone="no"?><!DOCTYPE svg PUBLIC "-//W3C//DTD SVG 1.1//EN" "http://www.w3.org/Graphics/SVG/1.1/DTD/svg11.dtd"><svg t="1563337607417" class="icon" viewBox="0 0 1025 1024" version="1.1" xmlns="http://www.w3.org/2000/svg" p-id="7501" xmlns:xlink="http://www.w3.org/1999/xlink" width="200.1953125" height="200"><defs><style type="text/css"></style></defs><path d="M969.6 963.904 56.064 963.904C25.024 963.904 0.064 937.856 0.064 907.328L0.064 257.6 196.992 60.16l629.76 0 196.928 197.44 0 649.664C1026.752 937.856 1000.704 963.904 969.6 963.904zM49.024 277.568l0 629.696c0 2.496 1.984 5.056 4.032 5.056l913.728 0c2.88 0 5.952-2.56 5.952-5.056L972.736 277.568l-169.856-168.384L214.976 109.184 49.024 277.568z" p-id="7502"></path><path d="M882.752 244.608 140.992 244.608l85.952-86.976 571.84 0L882.752 244.608zM201.984 219.072l618.752 0-36.032-35.968L237.952 183.104 201.984 219.072z" p-id="7503"></path></svg>