<?xml version="1.0" standalone="no"?><!DOCTYPE svg PUBLIC "-//W3C//DTD SVG 1.1//EN" "http://www.w3.org/Graphics/SVG/1.1/DTD/svg11.dtd"><svg t="1563883871802" class="icon" viewBox="0 0 1024 1024" version="1.1" xmlns="http://www.w3.org/2000/svg" p-id="5012" xmlns:xlink="http://www.w3.org/1999/xlink" width="200" height="200"><defs><style type="text/css"></style></defs><path d="M963.534 115.667H68.564c-25.441 0-46.065 20.624-46.065 46.065v611.179c0 25.441 20.624 46.065 46.065 46.065h137.74V990.783l57.898-33.428 239.681-138.38h459.651c25.441 0 46.065-20.624 46.065-46.065V161.732c-0.001-25.441-20.624-46.065-46.065-46.065zM951.7 729.829c0 21.854-18.204 39.57-40.661 39.57H473.954l-85.867 49.576L264.202 890.5V769.4H121.059c-22.456 0-40.661-17.716-40.661-39.57V204.813c0-21.854 18.204-39.57 40.661-39.57H911.04c22.456 0 40.661 17.716 40.661 39.57v525.016z" p-id="5013"></path><path d="M292.556 467.321m-70.765 0a70.765 70.765 0 1 0 141.53 0 70.765 70.765 0 1 0-141.53 0Z" p-id="5014"></path><path d="M516.049 467.321m-70.765 0a70.765 70.765 0 1 0 141.53 0 70.765 70.765 0 1 0-141.53 0Z" p-id="5015"></path><path d="M739.542 467.321m-70.765 0a70.765 70.765 0 1 0 141.53 0 70.765 70.765 0 1 0-141.53 0Z" p-id="5016"></path></svg>