<?xml version="1.0" standalone="no"?><!DOCTYPE svg PUBLIC "-//W3C//DTD SVG 1.1//EN" "http://www.w3.org/Graphics/SVG/1.1/DTD/svg11.dtd"><svg t="1564033694345" class="icon" viewBox="0 0 1024 1024" version="1.1" xmlns="http://www.w3.org/2000/svg" p-id="3626" xmlns:xlink="http://www.w3.org/1999/xlink" width="200" height="200"><defs><style type="text/css"></style></defs><path d="M964.154514 81.861486a29.242514 29.242514 0 0 0-30.866285-0.380343L60.459886 609.104457a29.257143 29.257143 0 1 0 6.568228 53.013943l273.027657 83.485257 35.766858 177.664a29.2864 29.2864 0 0 0 48.069485 16.135314l141.282743-124.957257 289.9968 88.6784a29.2864 29.2864 0 0 0 37.653943-24.766171L977.495771 109.714286a29.257143 29.257143 0 0 0-13.341257-27.8528zM423.175314 861.930057l-19.499885-96.885028 95.890285 29.330285-76.3904 67.554743z m415.349029-25.088l-363.271314-111.074743 294.107428-345.000228a14.613943 14.613943 0 1 0-22.250057-18.973257L444.781714 716.448914l-298.027885-91.121371 766.083657-463.111314-74.313143 674.625828z" fill="" p-id="3627"></path><path d="M812.2368 580.856686a14.628571 14.628571 0 0 0 16.310857-12.712229l2.720914-21.942857a14.599314 14.599314 0 0 0-12.712228-16.310857 14.584686 14.584686 0 0 0-16.310857 12.712228l-2.720915 21.942858a14.613943 14.613943 0 0 0 12.712229 16.310857zM792.736914 737.221486a14.628571 14.628571 0 0 0 16.559543-12.405029l14.0288-97.879771a14.6432 14.6432 0 0 0-12.419657-16.559543 14.701714 14.701714 0 0 0-16.559543 12.419657l-14.0288 97.879771a14.657829 14.657829 0 0 0 12.419657 16.544915z" fill="" p-id="3628"></path></svg>